# xmcd
#
# Track frame offsets: 
#        150
#        8782
#        30842
#        40060
#        59592
#        75192
#        81787
#        108975
#        122665
#        140147
#        155277
#        168477
#        191167
#        202825
#
# Disc length: 2838 seconds
#
# Revision: 3
# Processed by: cddbd v1.5.2PL0 Copyright (c) Steve Scherf et al.
# Submitted via: ExactAudioCopyFreeDBPlugin 1.0
#
DISCID=a80b140e
DTITLE=Koslowski - Arschloch
DYEAR=1992
DGENRE=Blues
TTITLE0=Fackel nicht so lange
TTITLE1=Wieder im Revier
TTITLE2=Bei Siggi um 9
TTITLE3=Eitelkeit
TTITLE4=Der Brummer
TTITLE5=Koslowski Beat
TTITLE6=Sp‰tschicht
TTITLE7=Heiﬂer Stoff
TTITLE8=Arschloch
TTITLE9=Ich hab' sie alle gehabt
TTITLE10=Auf Trabbel
TTITLE11=Alibi Bar
TTITLE12=Auf Video
TTITLE13=Rote Strapse
EXTD=
EXTT0=
EXTT1=
EXTT2=
EXTT3=
EXTT4=
EXTT5=
EXTT6=
EXTT7=
EXTT8=
EXTT9=
EXTT10=
EXTT11=
EXTT12=
EXTT13=
PLAYORDER=
